<svg version="1.1" id="Layer_1" xmlns="http://www.w3.org/2000/svg" x="0" y="0" viewBox="0 0 221.6 227.5" xml:space="preserve"><style>.st1{fill:#e8b920}.st2{fill:#3c2711}</style><path d="M115.7 21.7l-.1.1c-1.2 1.1-23.3 21.3-23.9 28.3-.7 7.2-18.2 52.2 4.7 82.4 20.2 26.6 51.8 51.8 59 57.4.9.7 1.1 1.9.6 2.8l-2.3 4.2c-.6 1.1-1.9 1.5-3 1-9.3-4.5-46.7-25.9-55.3-39.2-.1-.2-.2-.4-.3-.5-2.6-3.9-40.9-48.6-23-99.5.1-.2.3-.4.3-.6 2.3-8.2 31.9-33.4 39.6-41.1 1-1 2.7-.8 3.5.4l.8 1.3c.5 1 .3 2.3-.6 3z" fill="#f8bf3c"/><path class="st1" d="M115.4 17.5l-3.5-4.8-9.3 7.9s-13.1 7-25.4 14.2c-24.6 14.5-39.5 41.4-37.9 70 0 .8.1 1.5.2 2.3 3.3 43.6 52.9 93 79.4 97.5s33.8 1.7 33.8 1.7l1.7-5.7-34.4-21.8s-28.4-17-46.5-64.1 29.1-88 29.1-88l12.8-9.2z"/><path class="st2" d="M112.4 15.8c.5.4 1 .9 1.2 1.6.5 1.3 1.5 3.2 2.9 3.4 2.1.3 2.5-6 2.5-6l-4.7-3c-.9-.5-2 0-2.3 1-.2.8-.7 2.2.4 3zM156.7 191.5c4.5-.9-.9 15-4.9 15.9l-1-9.4 5.9-6.5z"/></svg>